<svg xmlns="http://www.w3.org/2000/svg" viewBox="0 0 350.5 185.51"><defs><style>.cls-1{fill:#1e1e1e;}</style></defs><title>02logoDistorthings</title><g id="Layer_2" data-name="Layer 2"><g id="Layer_1-2" data-name="Layer 1"><path class="cls-1" d="M67,43.5c0,20.6-15,35-37,35H0V8.5H30C52,8.5,67,22.7,67,43.5Zm-23.8,0c0-8.6-5.7-14-14.8-14h-5v28h5C37.51,57.5,43.21,52.1,43.21,43.5Z"/><path class="cls-1" d="M72.7,24.5H95.1v54H72.7ZM72.9,0h22V17.8h-22Z"/><path class="cls-1" d="M101.9,61.2h21.3c0,3.2,2,4.5,3.8,4.5a3.15,3.15,0,0,0,3.4-3.2c0-3-3.8-3.6-8.7-4.4-8.2-1.3-19.3-4-19.3-17.5,0-11.4,9.8-18.1,24.5-18.1,14.5,0,23.7,7.2,24.2,18.2H130.4c0-2.7-1.8-3.9-3.5-3.9a2.93,2.93,0,0,0-3.2,3c0,2.9,3.9,3.5,8.8,4.3,8.3,1.4,19.7,3,19.7,17.5,0,11.4-10.1,18.9-25.2,18.9C110.9,80.5,102.3,72.9,101.9,61.2Z"/><path class="cls-1" d="M198,59.1V78.5H182.9c-12,0-19.2-7.3-19.2-19.3V41.3h-10V35.8L180.6,7.1h4.8V24.5h12.3V41.3H186.1V54.8a4,4,0,0,0,4.3,4.3Z"/><path class="cls-1" d="M202.1,51.5c0-17.2,12.9-29,31.6-29s31.6,11.8,31.6,29-12.9,29-31.6,29S202.1,68.7,202.1,51.5Zm41,0c0-5.6-4-9.7-9.4-9.7s-9.4,4-9.4,9.7,4,9.7,9.4,9.7S243.1,57.2,243.1,51.5Z"/><path class="cls-1" d="M310,24.3V44.2h-8.2c-4.8,0-7.5,2.6-7.5,7.3v27H271.9v-54h15.8l3,5.51c3.77-4.07,8.25-5.71,14.2-5.71Z"/><path class="cls-1" d="M9.1,145.3h1.8a9.1,9.1,0,0,1,9.1,9.1h0a9.09,9.09,0,0,1-9.1,9.1H9.1A9.09,9.09,0,0,1,0,154.4H0A9.1,9.1,0,0,1,9.1,145.3Z"/><path class="cls-1" d="M65.3,144.1v19.4H50.2c-12,0-19.2-7.3-19.2-19.3V126.3H21v-5.5L47.9,92.1h4.8v17.4H65v16.8H53.4v13.5a4,4,0,0,0,4.3,4.3Z"/><path class="cls-1" d="M128.9,131.5v32H106.5V133.2c0-4.5-1.9-7.1-5.2-7.1-3.9,0-6.2,2.9-6.2,7.7v29.7H72.7V90H95.1v21.67a21.63,21.63,0,0,1,12.4-4.17C120.3,107.5,128.9,117.1,128.9,131.5Z"/><path class="cls-1" d="M137.7,109.5h22.4v54H137.7Zm.2-24.5h22v17.8h-22Z"/><path class="cls-1" d="M203.6,107.5c13,0,22.1,9.2,22.1,22.9v33.1H203.3V133.2c0-4.5-1.9-7.1-5.2-7.1-3.9,0-6.2,2.9-6.2,7.7v29.7H169.5v-54h16.1l1.91,4.36c3.89-4.11,9.39-6.36,16.09-6.36Z"/><path class="cls-1" d="M294.35,109.5v48c0,17.21-11.8,28-30.5,28-15.9,0-26.8-7.9-29.4-21.11h21c1,2.41,4.4,4,8.4,4,5.6,0,9.4-3.51,9.4-9v-1.22a25.93,25.93,0,0,1-13.4,3.72c-16,0-27.1-11-27.1-27.2,0-15.8,11.1-27.1,27.1-27.1a26.08,26.08,0,0,1,16.6,6l2.1-4.11Zm-20.1,25.2c0-5.9-4.1-10.1-9.7-10.1s-9.8,4.2-9.8,10.1,4.1,10.1,9.8,10.1S274.25,140.6,274.25,134.7Z"/><path class="cls-1" d="M300.2,146.2h21.3c0,3.2,2,4.5,3.8,4.5a3.15,3.15,0,0,0,3.4-3.2c0-3-3.8-3.6-8.7-4.4-8.2-1.3-19.3-4-19.3-17.5,0-11.4,9.8-18.1,24.5-18.1,14.5,0,23.7,7.2,24.2,18.2H328.7c0-2.7-1.8-3.9-3.5-3.9a2.93,2.93,0,0,0-3.2,3c0,2.9,3.9,3.5,8.8,4.3,8.3,1.4,19.7,3,19.7,17.5,0,11.4-10.1,18.9-25.2,18.9C309.2,165.5,300.6,157.9,300.2,146.2Z"/></g></g></svg>